<svg width="128" height="128" viewBox="0 0 128 128" xmlns="http://www.w3.org/2000/svg">
  <rect fill="transparent" width="128" height="128"/>
  <g transform="translate(18,8)">
    <circle cx="46" cy="20" r="13" fill="#c5ced6" stroke="#3c4b5c" stroke-width="3"/>
    <rect x="38" y="32" width="16" height="34" rx="8" fill="#4f6a8c"/>
    <rect x="34" y="64" width="12" height="30" rx="6" fill="#4f6a8c" transform="rotate(-28 40 79)"/>
    <rect x="52" y="62" width="12" height="30" rx="6" fill="#4f6a8c" transform="rotate(15 58 77)"/>
    <rect x="26" y="24" width="10" height="30" rx="5" fill="#c5ced6" transform="rotate(-70 31 39)"/>
    <rect x="56" y="36" width="10" height="26" rx="5" fill="#c5ced6" transform="rotate(18 61 49)"/>
    <rect x="62" y="32" width="14" height="18" rx="6" fill="#2ec4ff" opacity="0.7"/>
    <path d="M26 28 L6 12" stroke="#8cf0ff" stroke-width="6" stroke-linecap="round"/>
    <path d="M6 12 L18 8" stroke="#8cf0ff" stroke-width="6" stroke-linecap="round"/>
    <circle cx="48" cy="20" r="4" fill="#1b2a38"/>
    <circle cx="40" cy="20" r="2.5" fill="#1b2a38"/>
    <path d="M40 24 Q44 26 48 24" stroke="#1b2a38" stroke-width="2" stroke-linecap="round"/>
    <rect x="64" y="24" width="12" height="48" rx="6" fill="#9aa6b5" stroke="#3c4b5c" stroke-width="3" transform="rotate(-30 70 48)"/>
    <circle cx="20" cy="10" r="6" fill="#8cf0ff" stroke="#64a9bf" stroke-width="2"/>
  </g>
</svg>
