<svg width="128" height="128" viewBox="0 0 128 128" xmlns="http://www.w3.org/2000/svg">
  <rect fill="transparent" width="128" height="128"/>
  <g transform="translate(20,10)">
    <circle cx="44" cy="18" r="13" fill="#c5ced6" stroke="#3c4b5c" stroke-width="3"/>
    <rect x="36" y="30" width="16" height="34" rx="8" fill="#4f6a8c"/>
    <rect x="32" y="62" width="12" height="30" rx="6" fill="#4f6a8c" transform="rotate(-15 38 77)"/>
    <rect x="50" y="62" width="12" height="30" rx="6" fill="#4f6a8c" transform="rotate(12 56 77)"/>
    <rect x="30" y="36" width="10" height="24" rx="5" fill="#c5ced6" transform="rotate(22 35 48)"/>
    <rect x="52" y="36" width="10" height="24" rx="5" fill="#c5ced6" transform="rotate(-16 57 48)"/>
    <rect x="62" y="34" width="12" height="16" rx="6" fill="#2ec4ff" opacity="0.6"/>
    <circle cx="48" cy="18" r="4" fill="#1b2a38"/>
    <circle cx="40" cy="18" r="2.5" fill="#1b2a38"/>
    <path d="M40 22 Q44 24 48 22" stroke="#1b2a38" stroke-width="2" stroke-linecap="round"/>
    <rect x="60" y="20" width="10" height="46" rx="5" fill="#8896a5" stroke="#3c4b5c" stroke-width="3" transform="rotate(-12 65 43)"/>
  </g>
</svg>
