<svg width="128" height="128" viewBox="0 0 128 128" xmlns="http://www.w3.org/2000/svg">
  <g fill="none" stroke="none" stroke-width="1" fill-rule="evenodd">
    <rect fill="transparent" x="0" y="0" width="128" height="128"/>
    <g transform="translate(20,12)">
      <circle cx="44" cy="18" r="14" fill="#f7d4a8" stroke="#754c24" stroke-width="3"/>
      <rect x="34" y="32" width="20" height="32" rx="10" fill="#5c3c17"/>
      <rect x="30" y="60" width="12" height="30" rx="6" fill="#5c3c17" transform="rotate(-10 36 75)"/>
      <rect x="50" y="60" width="12" height="30" rx="6" fill="#5c3c17" transform="rotate(8 56 75)"/>
      <rect x="28" y="38" width="12" height="26" rx="6" fill="#f7d4a8" transform="rotate(15 34 51)"/>
      <rect x="56" y="38" width="12" height="26" rx="6" fill="#f7d4a8" transform="rotate(-20 62 51)"/>
      <rect x="64" y="28" width="10" height="42" rx="5" fill="#875129" stroke="#5b3719" stroke-width="3" transform="rotate(-25 69 49)"/>
      <circle cx="69" cy="27" r="8" fill="#b78446" stroke="#5b3719" stroke-width="3"/>
      <rect x="37" y="32" width="14" height="16" rx="6" fill="#7a4d1e" opacity="0.5"/>
      <path d="M40,18 C40,16 42,14 44,14 C46,14 48,16 48,18" stroke="#4c2f14" stroke-width="3" stroke-linecap="round"/>
      <circle cx="40" cy="18" r="2.5" fill="#302015"/>
      <circle cx="48" cy="18" r="2.5" fill="#302015"/>
    </g>
  </g>
</svg>
