<svg width="128" height="128" viewBox="0 0 128 128" xmlns="http://www.w3.org/2000/svg">
  <rect fill="transparent" width="128" height="128"/>
  <g transform="translate(18,16)">
    <circle cx="44" cy="16" r="13" fill="#f7d4a8" stroke="#6b3415" stroke-width="3"/>
    <rect x="36" y="28" width="16" height="28" rx="8" fill="#3b5a3b"/>
    <rect x="30" y="58" width="10" height="28" rx="5" fill="#3b5a3b" transform="rotate(-35 35 72)"/>
    <rect x="52" y="58" width="10" height="28" rx="5" fill="#3b5a3b" transform="rotate(20 57 72)"/>
    <rect x="24" y="20" width="10" height="32" rx="5" fill="#f7d4a8" transform="rotate(-70 29 36)"/>
    <rect x="54" y="30" width="10" height="26" rx="5" fill="#f7d4a8" transform="rotate(18 59 43)"/>
    <path d="M66 30 L90 8" stroke="#8d5d3a" stroke-width="6" stroke-linecap="round"/>
    <path d="M90 8 L98 36" stroke="#8d5d3a" stroke-width="6" stroke-linecap="round"/>
    <path d="M66 30 Q86 20 98 36" stroke="#2f3c2f" stroke-width="5" fill="none"/>
    <circle cx="80" cy="22" r="7" fill="#555" stroke="#1f1f1f" stroke-width="2"/>
    <circle cx="44" cy="16" r="2.5" fill="#2b1c12"/>
    <circle cx="50" cy="16" r="2.5" fill="#2b1c12"/>
    <path d="M42 22 Q44 20 46 22" stroke="#2b1c12" stroke-width="2" stroke-linecap="round"/>
  </g>
</svg>
