<svg width="128" height="128" viewBox="0 0 128 128" xmlns="http://www.w3.org/2000/svg">
  <rect fill="transparent" width="128" height="128"/>
  <g transform="translate(18,16)">
    <circle cx="44" cy="16" r="13" fill="#f7d4a8" stroke="#6b3415" stroke-width="3"/>
    <rect x="36" y="28" width="16" height="28" rx="8" fill="#3b5a3b"/>
    <rect x="32" y="56" width="10" height="28" rx="5" fill="#3b5a3b" transform="rotate(-15 37 70)"/>
    <rect x="50" y="58" width="10" height="28" rx="5" fill="#3b5a3b" transform="rotate(10 55 72)"/>
    <rect x="28" y="34" width="10" height="24" rx="5" fill="#f7d4a8" transform="rotate(20 33 46)"/>
    <rect x="52" y="32" width="10" height="24" rx="5" fill="#f7d4a8" transform="rotate(-10 57 44)"/>
    <path d="M60 40 L78 12" stroke="#8d5d3a" stroke-width="6" stroke-linecap="round"/>
    <path d="M78 12 L86 34" stroke="#8d5d3a" stroke-width="6" stroke-linecap="round"/>
    <path d="M60 40 Q74 26 86 34" stroke="#2f3c2f" stroke-width="4" fill="none"/>
    <circle cx="44" cy="16" r="2.5" fill="#2b1c12"/>
    <circle cx="50" cy="16" r="2.5" fill="#2b1c12"/>
    <path d="M42 22 Q44 24 46 22" stroke="#2b1c12" stroke-width="2" stroke-linecap="round"/>
  </g>
</svg>
