<svg width="128" height="128" viewBox="0 0 128 128" xmlns="http://www.w3.org/2000/svg">
  <rect fill="transparent" width="128" height="128"/>
  <g transform="translate(18,14)">
    <circle cx="44" cy="16" r="12" fill="#f2c49a" stroke="#5b3012" stroke-width="3"/>
    <rect x="36" y="28" width="16" height="28" rx="8" fill="#59713c"/>
    <rect x="32" y="56" width="10" height="26" rx="5" fill="#59713c" transform="rotate(-12 37 69)"/>
    <rect x="50" y="56" width="10" height="26" rx="5" fill="#59713c" transform="rotate(12 55 69)"/>
    <rect x="30" y="34" width="10" height="22" rx="5" fill="#f2c49a" transform="rotate(20 35 45)"/>
    <rect x="52" y="34" width="10" height="22" rx="5" fill="#f2c49a" transform="rotate(-12 57 45)"/>
    <path d="M58 32 C70 20 78 18 90 40" stroke="#7b5230" stroke-width="6" fill="none" stroke-linecap="round"/>
    <path d="M58 34 C70 26 76 26 86 42" stroke="#2b2b2b" stroke-width="3" fill="none"/>
    <circle cx="72" cy="28" r="4" fill="#3a3a3a"/>
    <path d="M40 20 Q44 22 48 20" stroke="#4d2a13" stroke-width="2" stroke-linecap="round"/>
    <circle cx="40" cy="16" r="2.5" fill="#2b1c12"/>
    <circle cx="48" cy="16" r="2.5" fill="#2b1c12"/>
  </g>
</svg>
