<svg width="128" height="128" viewBox="0 0 128 128" xmlns="http://www.w3.org/2000/svg">
  <rect fill="transparent" width="128" height="128"/>
  <g transform="translate(20,12)">
    <circle cx="40" cy="18" r="13" fill="#f2c49a" stroke="#5b3012" stroke-width="3"/>
    <rect x="32" y="30" width="16" height="30" rx="8" fill="#2f4a7a"/>
    <rect x="28" y="58" width="10" height="28" rx="5" fill="#2f4a7a" transform="rotate(-18 33 72)"/>
    <rect x="46" y="58" width="10" height="28" rx="5" fill="#2f4a7a" transform="rotate(10 51 72)"/>
    <rect x="26" y="36" width="10" height="22" rx="5" fill="#f2c49a" transform="rotate(18 31 47)"/>
    <rect x="48" y="34" width="10" height="22" rx="5" fill="#f2c49a" transform="rotate(-12 53 45)"/>
    <rect x="60" y="20" width="8" height="48" rx="4" fill="#c0c5ce" stroke="#8a8f98" stroke-width="3" transform="rotate(-15 64 44)"/>
    <rect x="54" y="18" width="14" height="8" rx="4" fill="#d19d39" stroke="#8a6b21" stroke-width="2"/>
    <path d="M36 22 Q40 26 44 22" stroke="#4d2a13" stroke-width="2" stroke-linecap="round"/>
    <circle cx="36" cy="18" r="2.5" fill="#2b1c12"/>
    <circle cx="44" cy="18" r="2.5" fill="#2b1c12"/>
  </g>
</svg>
