<svg width="128" height="128" viewBox="0 0 128 128" xmlns="http://www.w3.org/2000/svg">
  <rect fill="transparent" width="128" height="128"/>
  <g transform="translate(18,12)">
    <circle cx="42" cy="18" r="13" fill="#f2c49a" stroke="#5b3012" stroke-width="3"/>
    <rect x="34" y="30" width="16" height="30" rx="8" fill="#2f4a7a"/>
    <rect x="28" y="60" width="10" height="28" rx="5" fill="#2f4a7a" transform="rotate(-30 33 74)"/>
    <rect x="48" y="58" width="10" height="28" rx="5" fill="#2f4a7a" transform="rotate(18 53 72)"/>
    <rect x="60" y="12" width="8" height="60" rx="4" fill="#c0c5ce" stroke="#8a8f98" stroke-width="3" transform="rotate(-40 64 42)"/>
    <rect x="54" y="12" width="14" height="10" rx="4" fill="#d19d39" stroke="#8a6b21" stroke-width="2" transform="rotate(-40 61 17)"/>
    <rect x="52" y="30" width="10" height="24" rx="5" fill="#f2c49a" transform="rotate(-45 57 42)"/>
    <rect x="26" y="36" width="10" height="24" rx="5" fill="#f2c49a" transform="rotate(40 31 48)"/>
    <path d="M38 22 Q42 20 46 22" stroke="#4d2a13" stroke-width="2" stroke-linecap="round"/>
    <circle cx="38" cy="18" r="2.5" fill="#2b1c12"/>
    <circle cx="46" cy="18" r="2.5" fill="#2b1c12"/>
    <path d="M64 24 L90 6" stroke="#d7dbe2" stroke-width="6" stroke-linecap="round"/>
  </g>
</svg>
